HIERARCHY
ROOT root
{
	OFFSET	0	13.1	24.9
	CHANNELS 6  Xposition Yposition Zposition Xrotation Yrotation Zrotation
	JOINT spine_1
	{
		OFFSET	0	9.99999	0
		CHANNELS 3  Xrotation Yrotation Zrotation
		JOINT spine_2
		{
			OFFSET	0	112	-10
			CHANNELS 3  Xrotation Yrotation Zrotation
			JOINT spine_3
			{
				OFFSET	0	206.5	19.3
				CHANNELS 3  Xrotation Yrotation Zrotation
				JOINT spine_4
				{
					OFFSET	0	110.4	14.6
					CHANNELS 3  Xrotation Yrotation Zrotation
					JOINT neck_1
					{
						OFFSET	0	71.8	-50.3
						CHANNELS 3  Xrotation Yrotation Zrotation
						JOINT neck_2
						{
							OFFSET	0	86.2	-25.8
							CHANNELS 3  Xrotation Yrotation Zrotation
							JOINT head_ee
							{
								OFFSET	0	179.8	-8.7
								CHANNELS 3  Xrotation Yrotation Zrotation
								End Site
								{
									OFFSET	1	0	0
								}
							}
						}
					}
					JOINT left_clavicle
					{
						OFFSET	-43.2	22.4	-70.8
						CHANNELS 3  Xrotation Yrotation Zrotation
						JOINT left_shoulder
						{
							OFFSET	-93.9	-5.79999	48.7
							CHANNELS 3  Xrotation Yrotation Zrotation
							JOINT left_elbow
							{
								OFFSET	-291.4	-30.8	15.2
								CHANNELS 3  Xrotation Yrotation Zrotation
								JOINT left_lowarm_twist
								{
									OFFSET	-110.7	-3.89999	13.6
									CHANNELS 3  Xrotation Yrotation Zrotation
									JOINT left_hand
									{
										OFFSET	-110.7	-3.89999	13.6
										CHANNELS 3  Xrotation Yrotation Zrotation
										JOINT left_ee
										{
											OFFSET	-80.8	-5.10001	12.1
											CHANNELS 3  Xrotation Yrotation Zrotation
											End Site
											{
												OFFSET	1	0	0
											}
										}
									}
								}
							}
						}
					}
					JOINT right_clavicle
					{
						OFFSET	43.2	22.4	-70.8
						CHANNELS 3  Xrotation Yrotation Zrotation
						JOINT right_shoulder
						{
							OFFSET	93.9	-5.79999	48.7
							CHANNELS 3  Xrotation Yrotation Zrotation
							JOINT right_elbow
							{
								OFFSET	291.4	-30.8	15.2
								CHANNELS 3  Xrotation Yrotation Zrotation
								JOINT right_lowarm_twist
								{
									OFFSET	110.7	-3.89999	13.6
									CHANNELS 3  Xrotation Yrotation Zrotation
									JOINT right_hand
									{
										OFFSET	110.7	-3.89999	13.6
										CHANNELS 3  Xrotation Yrotation Zrotation
										JOINT right_ee
										{
											OFFSET	80.8	-5.10001	12.1
											CHANNELS 3  Xrotation Yrotation Zrotation
											End Site
											{
												OFFSET	1	0	0
											}
										}
									}
								}
							}
						}
					}
				}
			}
		}
	}
	JOINT left_hip
	{
		OFFSET	-82.8	-127.5	0.300001
		CHANNELS 3  Xrotation Yrotation Zrotation
		JOINT left_knee
		{
			OFFSET	-28.2	-396.7	2.2
			CHANNELS 3  Xrotation Yrotation Zrotation
			JOINT left_ankle
			{
				OFFSET	-11.7	-411.3	35.4
				CHANNELS 3  Xrotation Yrotation Zrotation
				JOINT left_toes
				{
					OFFSET	0	-60	-88.6
					CHANNELS 3  Xrotation Yrotation Zrotation
					JOINT left_foot_ee
					{
						OFFSET	-22.5	-16.5	-42.2
						CHANNELS 3  Xrotation Yrotation Zrotation
						End Site
						{
							OFFSET	1	0	0
						}
					}
				}
			}
		}
	}
	JOINT right_hip
	{
		OFFSET	82.8	-127.5	0.300001
		CHANNELS 3  Xrotation Yrotation Zrotation
		JOINT right_knee
		{
			OFFSET	28.2	-396.7	2.2
			CHANNELS 3  Xrotation Yrotation Zrotation
			JOINT right_ankle
			{
				OFFSET	11.7	-411.3	35.4
				CHANNELS 3  Xrotation Yrotation Zrotation
				JOINT right_toes
				{
					OFFSET	0	-60	-88.6
					CHANNELS 3  Xrotation Yrotation Zrotation
					JOINT right_foot_ee
					{
						OFFSET	22.5	-16.5	-42.2
						CHANNELS 3  Xrotation Yrotation Zrotation
						End Site
						{
							OFFSET	1	0	0
						}
					}
				}
			}
		}
	}
}
MOTION
Frames: 14
Frame Time: 0.02
1372.05 701.618 -1475.22 13.2146209051 55.2302612525 -14.9682476678 -3.21629 -0.0196151 1.31199 -3.21534 -0.103053 1.30808 -3.21666 -0.445709 1.23413 -3.2187 -0.245225 1.28902 -3.68403 19.7641 1.15679 -3.20786 35.3165 4.17029 -0.0 0.0 -0.0 5.84994 24.6281 10.7342 17.3631 -33.5848 62.4622 3.92796 -62.7825 2.3974 -38.9082 -2.8358 3.98114 0.334404 14.2608 7.94892 -0.0 0.0 -0.0 13.0864 22.315 -26.2602 -25.8368 15.8422 -65.6587 0.281601 7.94152 -0.0195471 -38.6947 2.81343 -3.96535 -7.64695 -22.7765 38.5421 0.0 0.0 0.0 -25.0589 19.3323 14.6952 -18.1937 0.312763 2.76276 39.0494 4.1226 -4.77523 -27.5055 0.0 0.0 -0.0 0.0 -0.0 25.7111 26.9337 -7.22105 -2.7125 -0.102141 -0.403711 5.82126 -23.0478 0.867871 -34.0561 0.0 0.0 0.0 0.0 0.0 
1320.56753455 701.374 -1491.16419804 13.5197257441 59.8196705055 -15.3345937465 -3.11997 -0.122476 1.09986 -3.11932 -0.192211 1.08984 -3.1224 -0.472252 1.00085 -3.12367 -0.30827 1.06286 -2.0067 20.4911 1.37775 -1.25406 36.0889 3.9618 -0.0 0.0 -0.0 5.2528 24.6586 9.91207 15.0288 -35.2166 66.5896 3.3258 -58.7296 1.87166 -36.9593 -2.63375 3.83383 0.179506 15.1932 7.33551 -0.0 0.0 -0.0 13.4515 22.2328 -27.1198 -25.4634 17.1317 -65.3535 0.367272 10.3116 -0.0331387 -41.5778 3.1205 -4.17166 -8.0892 -23.5124 41.2485 0.0 0.0 0.0 -26.009 11.7987 13.9128 -17.9929 0.314128 2.73197 41.1033 8.36266 -4.96131 -28.4293 0.0 0.0 -0.0 0.0 -0.0 25.8166 26.9664 -7.33684 -9.30678 -0.269875 -1.40124 -1.1004 -23.8611 -0.167462 -31.2627 0.0 0.0 0.0 0.0 0.0 
1298.7458586 709.425 -1506.10662903 14.6610929347 61.4463409476 -15.7937594114 -3.12441 -0.0486565 0.747088 -3.1241 -0.0960957 0.742478 -3.12505 -0.288116 0.691014 -3.12567 -0.175371 0.727842 -0.619721 20.7166 0.904884 0.373934 36.5203 3.04224 -0.0 0.0 -0.0 5.44856 24.4149 10.1935 12.7478 -34.5038 66.8416 3.00015 -56.0534 1.59727 -36.7895 -2.61638 3.82068 0.00960415 15.5154 6.40263 -0.0 0.0 -0.0 13.5279 21.56 -27.3576 -24.9212 17.5536 -65.6221 0.346764 9.74716 -0.0295672 -42.4881 3.21957 -4.23358 -8.15519 -23.5916 41.6964 0.0 0.0 0.0 -25.9184 8.51397 12.2354 -19.139 0.30489 2.90757 39.5352 9.28638 -4.83061 -28.7274 0.0 0.0 -0.0 0.0 -0.0 26.4951 27.3599 -9.27893 -12.8302 -0.312154 -1.94013 -1.9756 -21.2655 -0.297789 -30.9085 0.0 0.0 0.0 0.0 0.0 
1282.19270444 714.025 -1516.71447355 14.4796173247 62.9364182169 -14.9750734586 -3.01898 -0.0230889 0.71668 -3.0187 -0.0686451 0.713759 -3.01927 -0.252834 0.671 -3.01987 -0.143692 0.702508 -1.14412 20.5168 1.40089 -0.274294 35.8993 3.72505 -0.0 0.0 -0.0 5.40205 23.7331 10.164 10.2585 -34.2005 65.9849 2.72738 -53.4832 1.37441 -35.7843 -2.51439 3.74174 0.210766 13.8976 7.03051 -0.0 0.0 -0.0 13.9132 21.9573 -28.2293 -24.4723 18.5709 -66.0993 0.378668 10.6244 -0.0352093 -43.4933 3.3301 -4.30011 -8.28451 -24.4609 41.7062 0.0 0.0 0.0 -25.8021 8.5743 10.4608 -18.9689 0.306483 2.88152 38.6379 9.2974 -4.75036 -30.0819 0.0 0.0 -0.0 0.0 -0.0 25.3252 27.1409 -9.4691 -12.3344 -0.308209 -1.86416 -0.985923 -19.3307 -0.147259 -30.3392 0.0 0.0 0.0 0.0 0.0 
1232.82515906 718.917 -1533.96945246 16.3609703211 66.1776565766 -16.4553506564 -2.94303 0.259301 0.562701 -2.94288 0.22297 0.57806 -2.94033 0.0649808 0.616153 -2.94082 0.161473 0.598159 0.148015 19.9436 1.76547 1.08744 34.2295 3.71708 -0.0 0.0 -0.0 3.98776 23.8378 8.19736 6.04328 -33.2555 67.7056 2.4201 -50.1598 1.13276 -33.6855 -2.30601 3.57126 -0.169333 11.5997 3.71107 -0.0 0.0 -0.0 14.2306 22.7288 -28.9077 -22.9449 20.0412 -65.8308 0.304523 8.57866 -0.0228402 -46.1645 3.62931 -4.46742 -8.36603 -24.5669 42.2468 0.0 0.0 0.0 -25.1957 5.55787 7.96597 -20.6836 0.286886 3.14388 37.8919 9.03333 -4.68083 -31.2107 0.0 0.0 -0.0 0.0 -0.0 24.5284 28.6926 -11.612 -16.6157 -0.320581 -2.52077 3.14726 -13.0348 0.458483 -28.413 0.0 0.0 0.0 0.0 0.0 
1233.66153083 718.917 -1535.91337774 15.8656260459 65.4067817163 -15.9122613504 -2.94303 0.259301 0.562701 -2.94288 0.22297 0.57806 -2.94033 0.0649808 0.616153 -2.94082 0.161473 0.598159 0.148015 19.9436 1.76547 1.08744 34.2295 3.71708 -0.0 0.0 -0.0 3.98776 23.8378 8.19736 6.04328 -33.2555 67.7056 2.4201 -50.1598 1.13276 -33.6855 -2.30601 3.57126 -0.169333 11.5997 3.71107 -0.0 0.0 -0.0 14.2306 22.7288 -28.9077 -22.9449 20.0412 -65.8308 0.304523 8.57866 -0.0228402 -46.1645 3.62931 -4.46742 -8.36603 -24.5669 42.2468 0.0 0.0 0.0 -25.1957 5.55787 7.96597 -20.6836 0.286886 3.14388 37.8919 9.03333 -4.68083 -31.2107 0.0 0.0 -0.0 0.0 -0.0 24.5284 28.6926 -11.612 -16.6157 -0.320581 -2.52077 3.14726 -13.0348 0.458483 -28.413 0.0 0.0 0.0 0.0 0.0 
1198.35237971 717.608 -1544.47659251 15.6668682694 65.9464360958 -16.0159139341 -2.66143 0.331282 0.673185 -2.66122 0.287775 0.6929 -2.65733 0.101373 0.743401 -2.65803 0.217504 0.718063 0.14735 18.5198 3.05481 0.864828 30.6138 5.03605 -0.0 0.0 -0.0 2.405 23.5647 6.0158 4.08125 -30.6126 70.6309 1.94975 -44.0001 0.787817 -31.9923 -2.14255 3.42828 -0.282711 12.0517 3.17695 -0.0 0.0 -0.0 14.5687 25.8235 -29.3629 -18.334 23.2751 -67.0038 0.293638 8.27635 -0.0212449 -48.9946 3.95443 -4.62929 -8.63966 -25.8476 42.8792 0.0 0.0 0.0 -23.7824 4.42327 6.84681 -23.0352 0.24726 3.50253 36.1597 9.32651 -4.52 -31.8905 0.0 0.0 -0.0 0.0 -0.0 21.9881 31.7784 -12.8713 -16.6662 -0.320433 -2.52851 9.05086 -7.30721 1.29074 -26.0557 0.0 0.0 0.0 0.0 0.0 
1170.86628343 721.89 -1545.3701617 16.7531834324 66.7758433923 -17.5092732513 -2.61183 0.517088 0.894795 -2.6115 0.459104 0.925882 -2.60333 0.208537 1.01219 -2.60457 0.365769 0.966561 1.18685 19.6359 2.81354 2.12435 32.5333 4.60116 -0.0 0.0 -0.0 1.93268 23.8562 5.38289 2.49211 -28.3801 72.6265 1.78407 -41.4656 0.675356 -32.0375 -2.14686 3.43215 -0.997643 13.3349 -0.779824 -0.0 0.0 -0.0 14.2132 25.0825 -28.6143 -15.7997 24.5775 -68.2781 0.27609 7.78803 -0.018793 -50.8609 4.17301 -4.72717 -9.2315 -28.3202 44.4068 0.0 0.0 0.0 -21.3167 6.35814 5.319 -29.0618 0.0788574 4.41166 36.3517 6.01618 -4.52805 -33.7279 0.0 0.0 -0.0 0.0 -0.0 18.0489 32.2247 -10.9763 -15.0605 -0.321762 -2.28218 13.6469 -5.97115 1.91486 -25.6237 0.0 0.0 0.0 0.0 0.0 
1141.05027997 719.824 -1546.33875032 20.9974100075 69.8772253325 -22.0686892903 -2.53065 0.446209 1.08941 -2.53006 0.375987 1.11559 -2.52174 0.0815631 1.17441 -2.52356 0.266003 1.1468 2.24687 18.5012 3.08345 3.11417 29.9823 4.63705 -0.0 0.0 -0.0 1.51862 23.9715 4.82662 0.105306 -28.2707 72.6684 1.53146 -37.1829 0.515165 -32.6574 -2.20625 3.48501 -1.13366 12.4632 -2.02089 -0.0 0.0 -0.0 13.8242 25.7067 -27.6274 -13.4497 24.3367 -68.1213 0.262624 7.41251 -0.017012 -53.3189 4.4655 -4.84512 -9.17499 -27.0136 45.8321 0.0 0.0 0.0 -22.6402 4.24379 4.49267 -30.7077 0.0163109 4.6565 36.2249 4.52929 -4.51637 -34.2243 0.0 0.0 -0.0 0.0 -0.0 15.4987 33.7501 -9.97576 -16.5436 -0.320778 -2.50971 16.6973 -2.77262 2.32074 -24.5473 0.0 0.0 0.0 0.0 0.0 
1112.93503951 716.923 -1536.56827503 26.52386729 72.226470695 -27.6583693353 -2.52808 0.466677 1.08091 -2.52751 0.396955 1.10841 -2.51883 0.10373 1.17276 -2.52064 0.287631 1.14167 3.47877 17.4949 2.17928 4.3653 28.6328 3.35987 -0.0 0.0 -0.0 1.25113 24.4446 4.49762 -2.16446 -25.7806 74.1087 1.38066 -34.3678 0.426978 -33.6051 -2.29815 3.56458 -1.72021 14.0888 -4.95908 -0.0 0.0 -0.0 13.8399 25.9579 -27.6337 -11.3753 24.1539 -67.4073 0.204662 5.78921 -0.0103484 -56.3455 4.83208 -4.97295 -10.1128 -29.2204 50.932 0.0 0.0 0.0 -22.2418 4.21592 3.89455 -34.4634 -0.152607 5.20793 34.4741 0.606631 -4.36374 -35.0597 0.0 0.0 -0.0 0.0 -0.0 11.9518 34.2271 -9.39993 -16.4363 -0.321047 -2.49325 23.2985 -7.47766 3.1313 -24.0516 0.0 0.0 0.0 0.0 0.0 
1065.24964174 714.68 -1514.40015534 48.0076445935 78.6532818161 -49.3902403731 -2.41858 0.410055 1.15832 -2.41789 0.335522 1.18206 -2.40991 0.0279878 1.22843 -2.41194 0.22163 1.2086 4.79011 17.1242 1.57265 5.75259 28.1622 2.42964 -0.0 0.0 -0.0 -0.231566 24.2459 2.48822 -5.09336 -20.288 76.503 1.16444 -29.9766 0.311767 -35.7862 -2.51458 3.74189 -2.44994 15.9262 -8.60757 -0.0 0.0 -0.0 13.7821 25.9514 -27.4995 -8.87789 26.019 -67.1878 0.18898 5.3483 -0.00882665 -58.9026 5.1466 -5.06571 -11.2566 -32.511 56.122 0.0 0.0 0.0 -21.7311 4.39212 0.943732 -36.2029 -0.243037 5.4594 35.0659 -7.63495 -4.52347 -36.9863 0.0 0.0 -0.0 0.0 -0.0 6.76612 33.8723 -8.6116 -15.2522 -0.321966 -2.31159 28.9608 -8.43708 3.77868 -23.3671 0.0 0.0 0.0 0.0 0.0 
1033.0077743 715.616 -1496.36624304 67.2992399857 80.2025794368 -68.8437968098 -2.3913 0.516789 1.10651 -2.39073 0.445336 1.13714 -2.38085 0.146203 1.21245 -2.38274 0.335838 1.17415 3.95054 17.0639 2.24921 4.80492 27.6926 3.35235 -0.0 0.0 -0.0 -1.22519 24.4989 1.18885 -6.09184 -15.183 78.9 1.08411 -28.2367 0.272687 -37.0599 -2.64405 3.8416 -2.87238 17.2574 -10.531 -0.0 0.0 -0.0 13.722 25.9936 -27.354 -8.40588 25.9709 -66.3364 0.189419 5.36064 -0.0088675 -58.6491 5.11524 -5.05714 -11.4498 -32.6186 58.1333 0.0 0.0 0.0 -20.9893 4.39639 0.175039 -37.0329 -0.288874 5.57842 32.8246 -9.52501 -4.33604 -38.211 0.0 0.0 -0.0 0.0 -0.0 3.5212 33.3381 -8.21875 -15.2862 -0.321992 -2.3168 33.1346 -9.64193 4.22326 -24.1181 0.0 0.0 0.0 0.0 0.0 
1015.32879011 717.261 -1482.30938037 82.558099609 80.3617823734 -84.1663914826 -2.33007 0.610405 1.19795 -2.32943 0.532945 1.23435 -2.31672 0.208172 1.32827 -2.31894 0.415317 1.27873 3.43704 16.3305 1.49984 4.23409 27.1767 2.56574 -0.0 0.0 -0.0 -1.65083 24.4372 0.609653 -7.24559 -12.5131 78.9977 0.968179 -25.6223 0.220168 -37.5699 -2.6965 3.88072 -3.12988 18.5898 -11.3885 -0.0 0.0 -0.0 13.795 26.2919 -27.4877 -7.63061 26.6372 -66.2534 0.205653 5.81705 -0.0104486 -61.04 5.41237 -5.13238 -11.845 -33.1387 61.8725 0.0 0.0 0.0 -19.4691 4.55114 -0.740174 -38.3978 -0.367997 5.77268 35.3725 -11.9313 -4.64698 -38.6557 0.0 0.0 -0.0 0.0 -0.0 0.451904 32.9705 -7.87932 -14.9609 -0.321617 -2.26689 35.9916 -10.7797 4.51304 -23.7981 0.0 0.0 0.0 0.0 0.0 
998.511410029 721.246 -1469.16212064 96.650562246 79.6336210634 -98.3514451022 -2.30675 0.6842 1.15099 -2.30622 0.609579 1.19219 -2.29236 0.293477 1.30642 -2.2944 0.496102 1.24369 1.65352 15.7737 1.8333 2.27403 26.329 3.22914 -0.0 0.0 -0.0 -2.07837 24.5259 0.0514935 -8.33765 -9.63949 79.4829 0.903134 -24.1028 0.192818 -37.9043 -2.73109 3.90611 -3.29964 19.4966 -11.9168 -0.0 0.0 -0.0 13.8191 26.8017 -27.4793 -6.86372 26.9816 -65.6991 0.220376 6.23034 -0.0119937 -61.8526 5.514 -5.15511 -12.0463 -33.3399 64.2598 0.0 0.0 0.0 -18.0263 4.62248 -1.39043 -38.1434 -0.352895 5.73661 34.5352 -12.6235 -4.58191 -39.7285 0.0 0.0 -0.0 0.0 -0.0 -2.13564 32.5077 -7.4029 -13.5256 -0.316578 -2.04674 37.9082 -11.8387 4.70314 -24.1044 0.0 0.0 0.0 0.0 0.0 
